<svg width="200" height="200" version="1.1" viewBox="0 0 52.917 52.917" xmlns="http://www.w3.org/2000/svg"><defs><marker id="marker41" style="overflow:visible" markerHeight="0.75" markerWidth="0.75" orient="auto-start-reverse" preserveAspectRatio="xMidYMid" refX="-1" viewBox="0 0 1 1"><path d="m1 0-3 3h-2l3-3-3-3h2z" style="fill-rule:evenodd;fill:context-stroke"/></marker></defs><path d="m18.629 14.738-13.527-6.9825c-0.25729-0.13281-0.52265 0.2331-0.52265 0.52265v17.805c0 0.28955 0.26536 0.38984 0.52265 0.52265l13.527 6.9825c0.7489 0.33466 0.53748 0.03383 0.52265-0.52265v-17.805c0-0.28955-0.26536-0.38984-0.52265-0.52265z" style="fill:none;paint-order:markers fill stroke;stroke-linecap:square;stroke-linejoin:bevel;stroke-miterlimit:0;stroke-width:1.0315;stroke:#fff"/><path d="m19.699 14.887 27.117-5.4529c0.28386-0.057084 0.52265 0.2331 0.52265 0.52265v17.805c0 0.28955-0.23878 0.46556-0.52265 0.52265l-27.117 5.4529c-0.28386 0.05708-0.52265-0.2331-0.52265-0.52265v-17.805c0-0.28955 0.23878-0.46557 0.52265-0.52265z" style="fill:none;paint-order:markers fill stroke;stroke-linecap:square;stroke-linejoin:bevel;stroke-miterlimit:0;stroke-width:1.0315;stroke:#fff"/><path d="m18.629 33.352-13.527-6.9825c-0.25729-0.13281-0.52265 0.2331-0.52265 0.52265v17.805c0 0.28955 0.26536 0.38984 0.52265 0.52265l13.527 6.9825c0.7489 0.33466 0.53748 0.03383 0.52265-0.52265v-17.805c0-0.28955-0.26536-0.38984-0.52265-0.52265z" style="fill:none;paint-order:markers fill stroke;stroke-linecap:square;stroke-linejoin:bevel;stroke-miterlimit:0;stroke-width:1.0315;stroke:#fff"/><path d="m19.699 33.5 27.117-5.4529c0.28386-0.05708 0.52265 0.2331 0.52265 0.52265v17.805c0 0.28955-0.23878 0.46557-0.52265 0.52265l-27.117 5.4529c-0.28386 0.05708-0.52265-0.2331-0.52265-0.52265v-17.805c0-0.28955 0.23878-0.46557 0.52265-0.52265z" style="fill:none;paint-order:markers fill stroke;stroke-linecap:square;stroke-linejoin:bevel;stroke-miterlimit:0;stroke-width:1.0315;stroke:#fff"/><path d="m14.082 36.656-5.3313-2.7519c-0.1014-0.05236-0.20597 0.09187-0.20597 0.20599v7.0175c0 0.11412 0.10457 0.15364 0.20597 0.206l5.3313 2.7519c0.29516 0.13189 0.21183 0.01331 0.20597-0.20599v-7.0175c0-0.11412-0.10457-0.15364-0.20597-0.20598z" style="fill:none;paint-order:markers fill stroke;stroke-linecap:square;stroke-linejoin:bevel;stroke-miterlimit:0;stroke-width:.50335;stroke:#fff"/><path d="m11.268 35.134-2.6918-1.3018c-0.066149-0.03201-0.10319 0.09317-0.10319 0.20891v7.1168c0 0.11572 0.037402 0.17619 0.10319 0.20891l2.7652 1.3752c0.14786 0.13375 0.10611 0.01366 0.10319-0.20891v-7.1168c0-0.11574-0.05125-0.15695-0.10319-0.20889z" style="fill:none;paint-order:markers fill stroke;stroke-linecap:square;stroke-linejoin:bevel;stroke-miterlimit:0;stroke-width:.25167;stroke:#fff"/><g transform="matrix(1.2683 0 0 1.2683 -9.4427 -25.561)" style="stroke:#fff"><path d="m18.549 34.381-4.2035-2.1698c-0.07995-0.04128-0.1624 0.07244-0.1624 0.16242v5.5331c0 0.08998 0.08246 0.12114 0.1624 0.16242l4.2035 2.1698c0.23272 0.10399 0.16702 0.01056 0.1624-0.16242v-5.5331c0-0.08998-0.08246-0.12114-0.1624-0.1624z" style="fill:none;paint-order:markers fill stroke;stroke-linecap:square;stroke-linejoin:bevel;stroke-miterlimit:0;stroke-width:.39688;stroke:#fff"/><path d="m16.33 33.18-2.1224-1.0264c-0.05216-0.02523-0.08136 0.07346-0.08136 0.16472v5.6114c0 0.09125 0.02949 0.13892 0.08136 0.16472l2.1803 1.0843c0.11659 0.10546 0.08367 0.01071 0.08136-0.16472v-5.6114c0-0.09125-0.0404-0.12374-0.08136-0.1647z" style="fill:none;paint-order:markers fill stroke;stroke-linecap:square;stroke-linejoin:bevel;stroke-miterlimit:0;stroke-width:.19844;stroke:#fff"/></g><g transform="matrix(1.2683 0 0 1.2683 -9.4427 -6.9476)" style="stroke:#fff"><path d="m32.117 34.19-2.9923 0.58703c-0.04753 0.0093-0.18771 0.07818-0.18671 0.17528l0.06615 6.4343c9.98e-4 0.09709 0.06563 0.19692 0.18671 0.17528l3.1251-0.55851c0.26756-0.03709 0.23471-0.14478 0.18671-0.17528l-0.06615-6.4012s-0.09272-0.13168-0.18671-0.17527z" style="fill:none;paint-order:markers fill stroke;stroke-linecap:square;stroke-linejoin:bevel;stroke-miterlimit:0;stroke-width:.19844;stroke:#fff"/><path d="m29.179 34.794 9.7266-1.9559c0.10182-0.02047 0.18746 0.08361 0.18746 0.18747v6.3865c0 0.10386-0.08565 0.16699-0.18746 0.18747l-9.7266 1.9559c-0.10182 0.02047-0.18746-0.08361-0.18746-0.18747v-6.3866c0-0.10386 0.08565-0.16699 0.18746-0.18746z" style="fill:none;paint-order:markers fill stroke;stroke-linecap:square;stroke-linejoin:bevel;stroke-miterlimit:0;stroke-width:.39688;stroke:#fff"/><path d="m38.782 32.754-2.9923 0.58703c-0.04753 0.0093-0.18787 0.07818-0.18671 0.17528l0.07784 6.5044c0.0012 0.09709 0.06563 0.19692 0.18671 0.17528l3.1251-0.55851c0.26756-0.03709 0.23471-0.14478 0.18671-0.17528l-0.07784-6.4714s-0.09272-0.13168-0.18671-0.17527z" style="fill:none;paint-order:markers fill stroke;stroke-linecap:square;stroke-linejoin:bevel;stroke-miterlimit:0;stroke-width:.19844;stroke:#fff"/></g><g transform="matrix(1.2683 0 0 1.2683 -9.4427 -25.561)" style="stroke:#fff"><path d="m32.117 34.19-2.9923 0.58703c-0.04753 0.0093-0.18771 0.07818-0.18671 0.17528l0.06615 6.4343c9.98e-4 0.09709 0.06563 0.19692 0.18671 0.17528l3.1251-0.55851c0.26756-0.03709 0.23471-0.14478 0.18671-0.17528l-0.06615-6.4012s-0.09272-0.13168-0.18671-0.17527z" style="fill:none;paint-order:markers fill stroke;stroke-linecap:square;stroke-linejoin:bevel;stroke-miterlimit:0;stroke-width:.19844;stroke:#fff"/><path d="m29.179 34.794 9.7266-1.9559c0.10182-0.02047 0.18746 0.08361 0.18746 0.18747v6.3865c0 0.10386-0.08565 0.16699-0.18746 0.18747l-9.7266 1.9559c-0.10182 0.02047-0.18746-0.08361-0.18746-0.18747v-6.3866c0-0.10386 0.08565-0.16699 0.18746-0.18746z" style="fill:none;paint-order:markers fill stroke;stroke-linecap:square;stroke-linejoin:bevel;stroke-miterlimit:0;stroke-width:.39688;stroke:#fff"/><path d="m38.782 32.754-2.9923 0.58703c-0.04753 0.0093-0.18787 0.07818-0.18671 0.17528l0.07784 6.5044c0.0012 0.09709 0.06563 0.19692 0.18671 0.17528l3.1251-0.55851c0.26756-0.03709 0.23471-0.14478 0.18671-0.17528l-0.07784-6.4714s-0.09272-0.13168-0.18671-0.17527z" style="fill:none;paint-order:markers fill stroke;stroke-linecap:square;stroke-linejoin:bevel;stroke-miterlimit:0;stroke-width:.19844;stroke:#fff"/></g><path d="m19.171 15.475 0.13433 33.906" style="fill:none;marker-end:url(#marker41);paint-order:markers fill stroke;stroke-linecap:square;stroke-linejoin:bevel;stroke-miterlimit:0;stroke-width:2.0194;stroke:#185245"/><path d="m46.942 8.6144-14.45-7.6311c-0.25604-0.13522-0.57799-0.26331-0.85821-0.19043l-26.562 6.9086c-0.28022 0.072891-0.2275-0.019136 0.029788 0.11367l13.527 6.9825c0.7489 0.33466 0.66332 0.74691 0.64848 0.19043l28.02-5.5993c0.28393-0.056743-0.098821-0.6391-0.35486-0.77432z" style="fill:none;paint-order:markers fill stroke;stroke-linecap:square;stroke-linejoin:bevel;stroke-miterlimit:0;stroke-width:1.0315;stroke:#fff"/></svg>
