<?xml version="1.0" encoding="UTF-8" standalone="no"?>
<!-- Created with Inkscape (http://www.inkscape.org/) -->

<svg
   width="200"
   height="200"
   viewBox="0 0 52.916665 52.916651"
   version="1.1"
   id="svg1"
   sodipodi:docname="logo_white.svg"
   inkscape:version="1.4.3 (0d15f75, 2025-12-25)"
   inkscape:export-filename="лого_white.png"
   inkscape:export-xdpi="96"
   inkscape:export-ydpi="96"
   xmlns:inkscape="http://www.inkscape.org/namespaces/inkscape"
   xmlns:sodipodi="http://sodipodi.sourceforge.net/DTD/sodipodi-0.dtd"
   xmlns="http://www.w3.org/2000/svg"
   xmlns:svg="http://www.w3.org/2000/svg">
  <sodipodi:namedview
     id="namedview1"
     pagecolor="#d15252"
     bordercolor="#000000"
     borderopacity="0.25"
     inkscape:showpageshadow="2"
     inkscape:pageopacity="0.0"
     inkscape:pagecheckerboard="0"
     inkscape:deskcolor="#d1d1d1"
     inkscape:document-units="mm"
     showguides="true"
     inkscape:zoom="0.50000001"
     inkscape:cx="175"
     inkscape:cy="60.999998"
     inkscape:window-width="1920"
     inkscape:window-height="1013"
     inkscape:window-x="-9"
     inkscape:window-y="-9"
     inkscape:window-maximized="1"
     inkscape:current-layer="layer1" />
  <defs
     id="defs1">
    <marker
       style="overflow:visible"
       id="marker41"
       refX="-1"
       refY="0"
       orient="auto-start-reverse"
       inkscape:stockid="Wide, heavy arrow"
       markerWidth="0.75"
       markerHeight="0.75"
       viewBox="0 0 1 1"
       inkscape:isstock="true"
       inkscape:collect="always"
       preserveAspectRatio="xMidYMid">
      <path
         style="fill:context-stroke;fill-rule:evenodd;stroke:none"
         d="m 1,0 -3,3 h -2 l 3,-3 -3,-3 h 2 z"
         id="path41" />
    </marker>
  </defs>
  <g
     inkscape:label="Слой 1"
     inkscape:groupmode="layer"
     id="layer1">
    <g
       id="g13"
       style="stroke-width:0.669085;stroke-linecap:square;stroke-linejoin:round;stroke-miterlimit:0;stroke-dasharray:none"
       transform="matrix(0.99187885,0,0,1.4188834,2.1665836,-5.8380207)" />
    <path
       id="path15"
       style="fill:none;stroke:#ffffff;stroke-width:1.03146;stroke-linecap:square;stroke-linejoin:bevel;stroke-miterlimit:0;paint-order:markers fill stroke;stroke-opacity:1"
       d="M 18.629152,14.73847 5.1021404,7.7560173 C 4.8448494,7.6232082 4.5794941,7.9891159 4.5794941,8.2786653 V 26.084127 c 0,0.289548 0.265357,0.389837 0.5226463,0.522648 l 13.5270116,6.982456 c 0.748901,0.334657 0.537477,0.03383 0.522648,-0.522648 V 15.261118 c 0,-0.289547 -0.265355,-0.389837 -0.522648,-0.522648 z"
       sodipodi:nodetypes="sssssccss" />
    <path
       id="path16"
       style="fill:none;stroke:#ffffff;stroke-width:1.03146;stroke-linecap:square;stroke-linejoin:bevel;stroke-miterlimit:0;paint-order:markers fill stroke;stroke-opacity:1"
       d="M 19.699229,14.886771 46.81663,9.4338411 c 0.283865,-0.057084 0.522648,0.2331021 0.522648,0.522648 V 27.761953 c 0,0.289547 -0.238783,0.465565 -0.522648,0.522648 l -27.117401,5.452931 c -0.283865,0.05708 -0.522646,-0.2331 -0.522646,-0.522648 V 15.409419 c 0,-0.289548 0.238781,-0.465568 0.522646,-0.522648 z"
       sodipodi:nodetypes="sssssssss" />
    <path
       id="path17"
       style="fill:none;stroke:#ffffff;stroke-width:1.03146;stroke-linecap:square;stroke-linejoin:bevel;stroke-miterlimit:0;stroke-dasharray:none;paint-order:markers fill stroke;stroke-opacity:1"
       d="M 18.629152,33.352085 5.1021404,26.369627 c -0.257291,-0.132809 -0.5226463,0.233101 -0.5226463,0.522648 v 17.805472 c 0,0.289548 0.265357,0.389838 0.5226463,0.522648 l 13.5270116,6.982457 c 0.748901,0.334656 0.537477,0.03383 0.522648,-0.522648 V 33.874733 c 0,-0.289547 -0.265355,-0.389839 -0.522648,-0.522648 z"
       sodipodi:nodetypes="sssssccss" />
    <path
       id="path18"
       style="fill:none;stroke:#ffffff;stroke-width:1.03146;stroke-linecap:square;stroke-linejoin:bevel;stroke-miterlimit:0;paint-order:markers fill stroke;stroke-opacity:1"
       d="M 19.699229,33.500384 46.81663,28.047453 c 0.283865,-0.05708 0.522648,0.2331 0.522648,0.522648 v 17.80547 c 0,0.28955 -0.238783,0.465568 -0.522648,0.52265 l -27.117401,5.452931 c -0.283865,0.05708 -0.522646,-0.233102 -0.522646,-0.522649 V 34.023032 c 0,-0.289547 0.238781,-0.465566 0.522646,-0.522648 z"
       sodipodi:nodetypes="sssssssss" />
    <path
       id="path20"
       style="fill:none;stroke:#ffffff;stroke-width:0.503348;stroke-linecap:square;stroke-linejoin:bevel;stroke-miterlimit:0;stroke-dasharray:none;paint-order:markers fill stroke;stroke-opacity:1"
       d="M 14.082304,36.656492 8.7510452,33.904571 c -0.1013992,-0.05236 -0.2059735,0.09187 -0.2059735,0.205994 v 7.01748 c 0,0.114117 0.1045743,0.153635 0.2059735,0.205996 l 5.3312588,2.751921 c 0.295156,0.131887 0.211829,0.01331 0.205974,-0.205994 v -7.01749 c 0,-0.114117 -0.104574,-0.153635 -0.205974,-0.205976 z"
       sodipodi:nodetypes="sssssccss" />
    <path
       id="path21"
       style="fill:none;stroke:#ffffff;stroke-width:0.251673;stroke-linecap:square;stroke-linejoin:bevel;stroke-miterlimit:0;stroke-dasharray:none;paint-order:markers fill stroke;stroke-opacity:1"
       d="M 11.267939,35.133988 8.5761401,33.832183 c -0.066149,-0.03201 -0.1031916,0.09317 -0.1031916,0.208912 v 7.116813 c 0,0.115722 0.037402,0.176192 0.1031916,0.208913 l 2.7652039,1.375211 c 0.147865,0.133748 0.106111,0.01366 0.103192,-0.208912 v -7.116825 c 0,-0.115739 -0.05125,-0.156947 -0.103192,-0.208891 z"
       sodipodi:nodetypes="sssssccsss" />
    <g
       id="g25"
       transform="matrix(1.2682772,0,0,1.2682772,-9.442718,-25.561216)"
       style="stroke:#ffffff;stroke-opacity:1">
      <path
         id="path24"
         style="fill:none;stroke:#ffffff;stroke-width:0.396875;stroke-linecap:square;stroke-linejoin:bevel;stroke-miterlimit:0;stroke-dasharray:none;paint-order:markers fill stroke;stroke-opacity:1"
         d="m 18.548801,34.380564 -4.203544,-2.169811 c -0.07995,-0.04128 -0.162404,0.07244 -0.162404,0.162421 v 5.53308 c 0,0.08998 0.08246,0.121144 0.162404,0.162422 l 4.203544,2.169811 c 0.232722,0.103986 0.167021,0.01056 0.162405,-0.162421 v -5.533089 c 0,-0.08998 -0.08246,-0.121143 -0.162405,-0.162405 z"
         sodipodi:nodetypes="sssssccss" />
      <path
         id="path25"
         style="fill:none;stroke:#ffffff;stroke-width:0.198437;stroke-linecap:square;stroke-linejoin:bevel;stroke-miterlimit:0;stroke-dasharray:none;paint-order:markers fill stroke;stroke-opacity:1"
         d="M 16.329755,33.180114 14.20735,32.153678 c -0.05216,-0.02523 -0.08136,0.07346 -0.08136,0.16472 V 37.9298 c 0,0.09125 0.02949,0.138923 0.08136,0.164722 l 2.180283,1.084314 c 0.116588,0.105458 0.08367,0.01071 0.08136,-0.16472 v -5.611412 c 0,-0.09125 -0.0404,-0.123743 -0.08136,-0.164704 z"
         sodipodi:nodetypes="sssssccsss" />
    </g>
    <g
       id="g30"
       transform="matrix(1.2682772,0,0,1.2682772,-9.442718,-6.9475936)"
       style="stroke:#ffffff;stroke-opacity:1">
      <path
         id="path28"
         style="fill:none;stroke:#ffffff;stroke-width:0.198437;stroke-linecap:square;stroke-linejoin:bevel;stroke-miterlimit:0;stroke-dasharray:none;paint-order:markers fill stroke;stroke-opacity:1"
         d="m 32.116768,34.189884 -2.992275,0.587028 c -0.04753,0.0093 -0.187709,0.07818 -0.186711,0.175283 l 0.06615,6.434276 c 9.98e-4,0.09709 0.06563,0.196925 0.186711,0.175285 l 3.125099,-0.558511 c 0.267556,-0.03709 0.234706,-0.144777 0.186711,-0.175283 l -0.06615,-6.401214 c 0,0 -0.09272,-0.131679 -0.186711,-0.175267 z"
         sodipodi:nodetypes="ssssscccss" />
      <path
         id="path29"
         style="fill:none;stroke:#ffffff;stroke-width:0.396875;stroke-linecap:square;stroke-linejoin:bevel;stroke-miterlimit:0;stroke-dasharray:none;paint-order:markers fill stroke;stroke-opacity:1"
         d="m 29.178961,34.794231 9.726597,-1.955883 c 0.101817,-0.02047 0.187465,0.08361 0.187465,0.187466 v 6.386549 c 0,0.103857 -0.08565,0.166992 -0.187465,0.187466 l -9.726597,1.955883 c -0.101817,0.02047 -0.187464,-0.08361 -0.187464,-0.187466 v -6.38655 c 0,-0.103856 0.08565,-0.166991 0.187464,-0.187465 z"
         sodipodi:nodetypes="sssssssss" />
      <path
         id="path30"
         style="fill:none;stroke:#ffffff;stroke-width:0.198437;stroke-linecap:square;stroke-linejoin:bevel;stroke-miterlimit:0;stroke-dasharray:none;paint-order:markers fill stroke;stroke-opacity:1"
         d="m 38.782484,32.754393 -2.992275,0.587028 c -0.04753,0.0093 -0.187873,0.07818 -0.186711,0.175283 l 0.07784,6.504434 c 0.0012,0.09709 0.06563,0.196924 0.186711,0.175285 l 3.125099,-0.558511 c 0.267556,-0.03709 0.234706,-0.144777 0.186711,-0.175283 l -0.07784,-6.471372 c 0,0 -0.09272,-0.131679 -0.186711,-0.175267 z"
         sodipodi:nodetypes="ssssscccss" />
    </g>
    <g
       id="g36"
       transform="matrix(1.2682772,0,0,1.2682772,-9.442718,-25.561216)"
       style="stroke:#ffffff;stroke-opacity:1">
      <path
         id="path34"
         style="fill:none;stroke:#ffffff;stroke-width:0.198437;stroke-linecap:square;stroke-linejoin:bevel;stroke-miterlimit:0;stroke-dasharray:none;paint-order:markers fill stroke;stroke-opacity:1"
         d="m 32.116768,34.189884 -2.992275,0.587028 c -0.04753,0.0093 -0.187709,0.07818 -0.186711,0.175283 l 0.06615,6.434276 c 9.98e-4,0.09709 0.06563,0.196925 0.186711,0.175285 l 3.125099,-0.558511 c 0.267556,-0.03709 0.234706,-0.144777 0.186711,-0.175283 l -0.06615,-6.401214 c 0,0 -0.09272,-0.131679 -0.186711,-0.175267 z"
         sodipodi:nodetypes="ssssscccss" />
      <path
         id="path35"
         style="fill:none;stroke:#ffffff;stroke-width:0.396875;stroke-linecap:square;stroke-linejoin:bevel;stroke-miterlimit:0;stroke-dasharray:none;paint-order:markers fill stroke;stroke-opacity:1"
         d="m 29.178961,34.794231 9.726597,-1.955883 c 0.101817,-0.02047 0.187465,0.08361 0.187465,0.187466 v 6.386549 c 0,0.103857 -0.08565,0.166992 -0.187465,0.187466 l -9.726597,1.955883 c -0.101817,0.02047 -0.187464,-0.08361 -0.187464,-0.187466 v -6.38655 c 0,-0.103856 0.08565,-0.166991 0.187464,-0.187465 z"
         sodipodi:nodetypes="sssssssss" />
      <path
         id="path36"
         style="fill:none;stroke:#ffffff;stroke-width:0.198437;stroke-linecap:square;stroke-linejoin:bevel;stroke-miterlimit:0;stroke-dasharray:none;paint-order:markers fill stroke;stroke-opacity:1"
         d="m 38.782484,32.754393 -2.992275,0.587028 c -0.04753,0.0093 -0.187873,0.07818 -0.186711,0.175283 l 0.07784,6.504434 c 0.0012,0.09709 0.06563,0.196924 0.186711,0.175285 l 3.125099,-0.558511 c 0.267556,-0.03709 0.234706,-0.144777 0.186711,-0.175283 l -0.07784,-6.471372 c 0,0 -0.09272,-0.131679 -0.186711,-0.175267 z"
         sodipodi:nodetypes="ssssscccss" />
    </g>
    <path
       style="fill:none;stroke:#185245;stroke-width:2.01945;stroke-linecap:square;stroke-linejoin:bevel;stroke-miterlimit:0;stroke-dasharray:none;stroke-opacity:1;marker-end:url(#marker41);paint-order:markers fill stroke"
       d="M 19.171277,15.475156 19.305606,49.38119"
       id="path37"
       sodipodi:nodetypes="cc" />
    <path
       id="path26"
       style="fill:none;stroke:#ffffff;stroke-width:1.03146;stroke-linecap:square;stroke-linejoin:bevel;stroke-miterlimit:0;paint-order:markers fill stroke;stroke-opacity:1"
       d="M 46.94245,8.6144059 32.492636,0.98327465 C 32.2366,0.84805865 31.914647,0.71996278 31.634423,0.7928473 L 5.0723557,7.7014529 C 4.792132,7.7743442 4.8448511,7.6823168 5.1021438,7.8151258 L 18.62916,14.79758 c 0.748902,0.334657 0.663315,0.746913 0.648484,0.190428 L 47.297315,9.3887236 C 47.581248,9.331981 47.198494,8.7496201 46.94245,8.6144007 Z"
       sodipodi:nodetypes="sssssccss" />
  </g>
</svg>
